<svg t="1711201801056" class="icon" viewBox="0 0 1024 1024" version="1.1" xmlns="http://www.w3.org/2000/svg" p-id="1088" width="200" height="200"><path d="M512 988C249.532 988 36 774.468 36 512S249.532 36 512 36s476 213.532 476 476c0 80.636-20.556 160.336-59.428 230.476-13.388 24.14-43.804 32.88-67.968 19.488-24.148-13.388-32.876-43.82-19.492-67.972C871.78 638.652 888 575.72 888 512c0-207.328-168.672-376-376-376s-376 168.672-376 376 168.672 376 376 376c55.408 0 108.744-11.752 158.528-34.936 25.028-11.656 54.772-0.812 66.432 24.228 11.656 25.032 0.812 54.772-24.228 66.428C649.636 973.1 582.092 988 512 988z" p-id="1089"></path><path d="M588 466h-114v-60H628c27.608 0 50-22.384 50-50s-22.392-50-50-50h-52V260c0-27.612-22.392-50-50-50-27.612 0-50 22.388-50 50v46h-12c-49.628 0-90 40.372-90 90v80c0 49.624 40.372 90 90 90h114v60H424c-27.616 0-50 22.392-50 50s22.384 50 50 50h52V772c0 27.608 22.388 50 50 50 27.608 0 50-22.392 50-50v-46h12c49.624 0 90-40.376 90-90v-80c0-49.628-40.376-90-90-90z" p-id="1090"></path></svg>